<?xml version='1.0' encoding='UTF-8'?>
<svg width="82mm" height="82mm" version="1.1" viewBox="0 0 82 82" xmlns="http://www.w3.org/2000/svg"><path d="M8,8H10V10H8zM10,8H12V10H10zM12,8H14V10H12zM14,8H16V10H14zM16,8H18V10H16zM18,8H20V10H18zM20,8H22V10H20zM30,8H32V10H30zM36,8H38V10H36zM38,8H40V10H38zM40,8H42V10H40zM44,8H46V10H44zM46,8H48V10H46zM52,8H54V10H52zM56,8H58V10H56zM60,8H62V10H60zM62,8H64V10H62zM64,8H66V10H64zM66,8H68V10H66zM68,8H70V10H68zM70,8H72V10H70zM72,8H74V10H72zM8,10H10V12H8zM20,10H22V12H20zM26,10H28V12H26zM28,10H30V12H28zM30,10H32V12H30zM32,10H34V12H32zM36,10H38V12H36zM38,10H40V12H38zM42,10H44V12H42zM46,10H48V12H46zM48,10H50V12H48zM56,10H58V12H56zM60,10H62V12H60zM72,10H74V12H72zM8,12H10V14H8zM12,12H14V14H12zM14,12H16V14H14zM16,12H18V14H16zM20,12H22V14H20zM24,12H26V14H24zM34,12H36V14H34zM38,12H40V14H38zM42,12H44V14H42zM46,12H48V14H46zM50,12H52V14H50zM54,12H56V14H54zM56,12H58V14H56zM60,12H62V14H60zM64,12H66V14H64zM66,12H68V14H66zM68,12H70V14H68zM72,12H74V14H72zM8,14H10V16H8zM12,14H14V16H12zM14,14H16V16H14zM16,14H18V16H16zM20,14H22V16H20zM24,14H26V16H24zM26,14H28V16H26zM28,14H30V16H28zM32,14H34V16H32zM38,14H40V16H38zM42,14H44V16H42zM48,14H50V16H48zM50,14H52V16H50zM54,14H56V16H54zM56,14H58V16H56zM60,14H62V16H60zM64,14H66V16H64zM66,14H68V16H66zM68,14H70V16H68zM72,14H74V16H72zM8,16H10V18H8zM12,16H14V18H12zM14,16H16V18H14zM16,16H18V18H16zM20,16H22V18H20zM26,16H28V18H26zM28,16H30V18H28zM32,16H34V18H32zM34,16H36V18H34zM42,16H44V18H42zM46,16H48V18H46zM50,16H52V18H50zM54,16H56V18H54zM60,16H62V18H60zM64,16H66V18H64zM66,16H68V18H66zM68,16H70V18H68zM72,16H74V18H72zM8,18H10V20H8zM20,18H22V20H20zM28,18H30V20H28zM34,18H36V20H34zM36,18H38V20H36zM38,18H40V20H38zM40,18H42V20H40zM42,18H44V20H42zM46,18H48V20H46zM56,18H58V20H56zM60,18H62V20H60zM72,18H74V20H72zM8,20H10V22H8zM10,20H12V22H10zM12,20H14V22H12zM14,20H16V22H14zM16,20H18V22H16zM18,20H20V22H18zM20,20H22V22H20zM24,20H26V22H24zM28,20H30V22H28zM32,20H34V22H32zM36,20H38V22H36zM40,20H42V22H40zM44,20H46V22H44zM48,20H50V22H48zM52,20H54V22H52zM56,20H58V22H56zM60,20H62V22H60zM62,20H64V22H62zM64,20H66V22H64zM66,20H68V22H66zM68,20H70V22H68zM70,20H72V22H70zM72,20H74V22H72zM28,22H30V24H28zM32,22H34V24H32zM34,22H36V24H34zM40,22H42V24H40zM44,22H46V24H44zM46,22H48V24H46zM52,22H54V24H52zM54,22H56V24H54zM14,24H16V26H14zM16,24H18V26H16zM20,24H22V26H20zM22,24H24V26H22zM34,24H36V26H34zM40,24H42V26H40zM44,24H46V26H44zM54,24H56V26H54zM66,24H68V26H66zM68,24H70V26H68zM8,26H10V28H8zM12,26H14V28H12zM14,26H16V28H14zM16,26H18V28H16zM18,26H20V28H18zM24,26H26V28H24zM28,26H30V28H28zM30,26H32V28H30zM38,26H40V28H38zM46,26H48V28H46zM52,26H54V28H52zM54,26H56V28H54zM58,26H60V28H58zM62,26H64V28H62zM64,26H66V28H64zM10,28H12V30H10zM18,28H20V30H18zM20,28H22V30H20zM24,28H26V30H24zM30,28H32V30H30zM32,28H34V30H32zM34,28H36V30H34zM36,28H38V30H36zM42,28H44V30H42zM46,28H48V30H46zM48,28H50V30H48zM50,28H52V30H50zM54,28H56V30H54zM58,28H60V30H58zM60,28H62V30H60zM62,28H64V30H62zM66,28H68V30H66zM70,28H72V30H70zM72,28H74V30H72zM12,30H14V32H12zM14,30H16V32H14zM18,30H20V32H18zM22,30H24V32H22zM24,30H26V32H24zM28,30H30V32H28zM30,30H32V32H30zM32,30H34V32H32zM34,30H36V32H34zM36,30H38V32H36zM38,30H40V32H38zM44,30H46V32H44zM48,30H50V32H48zM58,30H60V32H58zM62,30H64V32H62zM64,30H66V32H64zM68,30H70V32H68zM72,30H74V32H72zM12,32H14V34H12zM14,32H16V34H14zM16,32H18V34H16zM18,32H20V34H18zM20,32H22V34H20zM22,32H24V34H22zM32,32H34V34H32zM34,32H36V34H34zM48,32H50V34H48zM50,32H52V34H50zM52,32H54V34H52zM54,32H56V34H54zM56,32H58V34H56zM60,32H62V34H60zM62,32H64V34H62zM66,32H68V34H66zM72,32H74V34H72zM18,34H20V36H18zM22,34H24V36H22zM36,34H38V36H36zM38,34H40V36H38zM48,34H50V36H48zM50,34H52V36H50zM52,34H54V36H52zM54,34H56V36H54zM58,34H60V36H58zM62,34H64V36H62zM66,34H68V36H66zM68,34H70V36H68zM70,34H72V36H70zM8,36H10V38H8zM12,36H14V38H12zM20,36H22V38H20zM22,36H24V38H22zM28,36H30V38H28zM30,36H32V38H30zM36,36H38V38H36zM38,36H40V38H38zM44,36H46V38H44zM56,36H58V38H56zM58,36H60V38H58zM66,36H68V38H66zM68,36H70V38H68zM10,38H12V40H10zM16,38H18V40H16zM22,38H24V40H22zM24,38H26V40H24zM30,38H32V40H30zM32,38H34V40H32zM34,38H36V40H34zM38,38H40V40H38zM40,38H42V40H40zM42,38H44V40H42zM58,38H60V40H58zM60,38H62V40H60zM64,38H66V40H64zM68,38H70V40H68zM70,38H72V40H70zM18,40H20V42H18zM20,40H22V42H20zM24,40H26V42H24zM32,40H34V42H32zM36,40H38V42H36zM38,40H40V42H38zM42,40H44V42H42zM48,40H50V42H48zM54,40H56V42H54zM58,40H60V42H58zM60,40H62V42H60zM62,40H64V42H62zM64,40H66V42H64zM66,40H68V42H66zM70,40H72V42H70zM10,42H12V44H10zM12,42H14V44H12zM22,42H24V44H22zM28,42H30V44H28zM30,42H32V44H30zM32,42H34V44H32zM34,42H36V44H34zM36,42H38V44H36zM38,42H40V44H38zM42,42H44V44H42zM46,42H48V44H46zM48,42H50V44H48zM50,42H52V44H50zM52,42H54V44H52zM56,42H58V44H56zM60,42H62V44H60zM62,42H64V44H62zM64,42H66V44H64zM66,42H68V44H66zM72,42H74V44H72zM10,44H12V46H10zM16,44H18V46H16zM20,44H22V46H20zM22,44H24V46H22zM24,44H26V46H24zM26,44H28V46H26zM32,44H34V46H32zM34,44H36V46H34zM38,44H40V46H38zM42,44H44V46H42zM44,44H46V46H44zM46,44H48V46H46zM54,44H56V46H54zM62,44H64V46H62zM64,44H66V46H64zM66,44H68V46H66zM68,44H70V46H68zM72,44H74V46H72zM8,46H10V48H8zM14,46H16V48H14zM22,46H24V48H22zM26,46H28V48H26zM28,46H30V48H28zM30,46H32V48H30zM32,46H34V48H32zM34,46H36V48H34zM36,46H38V48H36zM44,46H46V48H44zM54,46H56V48H54zM56,46H58V48H56zM66,46H68V48H66zM68,46H70V48H68zM70,46H72V48H70zM72,46H74V48H72zM14,48H16V50H14zM16,48H18V50H16zM20,48H22V50H20zM22,48H24V50H22zM24,48H26V50H24zM28,48H30V50H28zM38,48H40V50H38zM44,48H46V50H44zM56,48H58V50H56zM62,48H64V50H62zM66,48H68V50H66zM8,50H10V52H8zM16,50H18V52H16zM18,50H20V52H18zM28,50H30V52H28zM30,50H32V52H30zM34,50H36V52H34zM40,50H42V52H40zM46,50H48V52H46zM50,50H52V52H50zM52,50H54V52H52zM56,50H58V52H56zM62,50H64V52H62zM64,50H66V52H64zM68,50H70V52H68zM8,52H10V54H8zM12,52H14V54H12zM20,52H22V54H20zM22,52H24V54H22zM26,52H28V54H26zM32,52H34V54H32zM34,52H36V54H34zM38,52H40V54H38zM42,52H44V54H42zM46,52H48V54H46zM48,52H50V54H48zM50,52H52V54H50zM54,52H56V54H54zM60,52H62V54H60zM62,52H64V54H62zM68,52H70V54H68zM70,52H72V54H70zM72,52H74V54H72zM8,54H10V56H8zM22,54H24V56H22zM32,54H34V56H32zM38,54H40V56H38zM42,54H44V56H42zM44,54H46V56H44zM46,54H48V56H46zM48,54H50V56H48zM54,54H56V56H54zM62,54H64V56H62zM68,54H70V56H68zM70,54H72V56H70zM8,56H10V58H8zM10,56H12V58H10zM12,56H14V58H12zM16,56H18V58H16zM18,56H20V58H18zM20,56H22V58H20zM24,56H26V58H24zM30,56H32V58H30zM32,56H34V58H32zM40,56H42V58H40zM46,56H48V58H46zM48,56H50V58H48zM56,56H58V58H56zM58,56H60V58H58zM60,56H62V58H60zM62,56H64V58H62zM64,56H66V58H64zM66,56H68V58H66zM70,56H72V58H70zM72,56H74V58H72zM24,58H26V60H24zM34,58H36V60H34zM38,58H40V60H38zM42,58H44V60H42zM46,58H48V60H46zM50,58H52V60H50zM56,58H58V60H56zM64,58H66V60H64zM68,58H70V60H68zM8,60H10V62H8zM10,60H12V62H10zM12,60H14V62H12zM14,60H16V62H14zM16,60H18V62H16zM18,60H20V62H18zM20,60H22V62H20zM24,60H26V62H24zM28,60H30V62H28zM40,60H42V62H40zM42,60H44V62H42zM54,60H56V62H54zM56,60H58V62H56zM60,60H62V62H60zM64,60H66V62H64zM66,60H68V62H66zM68,60H70V62H68zM8,62H10V64H8zM20,62H22V64H20zM28,62H30V64H28zM30,62H32V64H30zM34,62H36V64H34zM40,62H42V64H40zM42,62H44V64H42zM44,62H46V64H44zM46,62H48V64H46zM50,62H52V64H50zM52,62H54V64H52zM54,62H56V64H54zM56,62H58V64H56zM64,62H66V64H64zM66,62H68V64H66zM68,62H70V64H68zM70,62H72V64H70zM8,64H10V66H8zM12,64H14V66H12zM14,64H16V66H14zM16,64H18V66H16zM20,64H22V66H20zM24,64H26V66H24zM28,64H30V66H28zM32,64H34V66H32zM34,64H36V66H34zM42,64H44V66H42zM44,64H46V66H44zM46,64H48V66H46zM50,64H52V66H50zM52,64H54V66H52zM54,64H56V66H54zM56,64H58V66H56zM58,64H60V66H58zM60,64H62V66H60zM62,64H64V66H62zM64,64H66V66H64zM70,64H72V66H70zM8,66H10V68H8zM12,66H14V68H12zM14,66H16V68H14zM16,66H18V68H16zM20,66H22V68H20zM24,66H26V68H24zM26,66H28V68H26zM28,66H30V68H28zM30,66H32V68H30zM34,66H36V68H34zM36,66H38V68H36zM38,66H40V68H38zM40,66H42V68H40zM42,66H44V68H42zM44,66H46V68H44zM48,66H50V68H48zM50,66H52V68H50zM52,66H54V68H52zM54,66H56V68H54zM58,66H60V68H58zM62,66H64V68H62zM70,66H72V68H70zM8,68H10V70H8zM12,68H14V70H12zM14,68H16V70H14zM16,68H18V70H16zM20,68H22V70H20zM30,68H32V70H30zM34,68H36V70H34zM40,68H42V70H40zM44,68H46V70H44zM48,68H50V70H48zM50,68H52V70H50zM52,68H54V70H52zM64,68H66V70H64zM66,68H68V70H66zM70,68H72V70H70zM72,68H74V70H72zM8,70H10V72H8zM20,70H22V72H20zM38,70H40V72H38zM42,70H44V72H42zM44,70H46V72H44zM46,70H48V72H46zM48,70H50V72H48zM50,70H52V72H50zM52,70H54V72H52zM54,70H56V72H54zM66,70H68V72H66zM68,70H70V72H68zM70,70H72V72H70zM72,70H74V72H72zM8,72H10V74H8zM10,72H12V74H10zM12,72H14V74H12zM14,72H16V74H14zM16,72H18V74H16zM18,72H20V74H18zM20,72H22V74H20zM30,72H32V74H30zM32,72H34V74H32zM34,72H36V74H34zM36,72H38V74H36zM40,72H42V74H40zM42,72H44V74H42zM48,72H50V74H48zM52,72H54V74H52zM54,72H56V74H54zM56,72H58V74H56zM58,72H60V74H58zM60,72H62V74H60zM64,72H66V74H64z" id="qr-path" fill="#000000" fill-opacity="1" fill-rule="nonzero" stroke="none"/></svg>