<svg viewBox="0 66 420 400" xmlns="http://www.w3.org/2000/svg" role="img" aria-labelledby="jpTitle jpDesc" font-family="system-ui, -apple-system, 'Segoe UI', sans-serif">
  <title id="jpTitle">Карта Японии с маршрутом гида</title>
  <desc id="jpDesc">Основные острова Японии с городами Токио, Киото, Фудзи, Хаконе, Никко, Камакура, соединёнными пунктирным маршрутом.</desc>

  <path d="M95.457,286.724L94.748,287.465L93.33,287.218L92.503,286.123L92.798,284.887L94.275,283.932L95.634,285.841ZM177.109,253.432L175.573,253.504L175.159,253.287L176.104,252.782L176.163,251.916L176.754,250.399L176.754,249.929L175.514,249.857L175.573,248.12L176.518,246.382L179.058,243.662L179.708,243.154L179.827,244.352L179.058,247.143L178.881,248.157L180.89,248.374L179.59,251.736ZM121.099,325.206L119.326,326.895L117.79,326.792L117.022,326.034L116.786,325.103L118.263,323.619L119.503,321.547L120.626,320.614L121.571,320.095L122.28,320.129L120.685,323.032ZM50.377,403.379L48.486,403.775L47.482,403.346L46.537,401.002L48.309,399.515L50.732,400.969L51.204,401.399ZM55.931,400.837L54.513,401.035L54.454,399.912L55.576,397.432L55.695,395.611L56.758,393.291L57.231,392.793L57.585,392.594L57.94,393.324L57.526,396.141L56.463,398.292ZM41.515,365.619L40.215,366.292L40.038,365.653L39.506,365.35L40.451,364.406L40.451,364.002L39.801,363.361L40.51,360.965L40.333,359.952L42.933,359.546L43.405,360.526L43.464,363.462ZM28.339,328.479L27.276,329.27L26.803,328.066L27.276,324.551L29.285,325.275L29.285,326.344ZM30.112,323.895L29.757,324.861L28.635,324.206L28.162,323.585L29.167,320.579L29.048,319.403L29.107,318.849L31.175,317.291L31.53,317.568L31.648,318.018L31.471,318.711L31.589,320.199L29.994,322.652ZM18.295,354.842L18.886,355.35L19.832,355.045L20.6,354.978L21.131,355.249L21.781,356.603L22.018,357.416L20.836,357.517L20.304,357.686L19.654,358.701L18.709,358.329L18.118,357.855L18,357.213ZM46.419,361.843L45.001,361.944L44.351,361.708L44.114,361.1L46.182,359.85L47.718,360.053L47.069,361.201ZM221.893,88.366L221.243,89.864L220.416,87.636L220.239,85.282L220.712,85.282L221.657,85.648L221.834,86.784ZM225.556,93.341L224.434,93.503L223.075,92.534L222.898,91.321L223.902,90.35L224.847,90.714L225.793,91.968L226.088,92.614ZM195.779,162.213L195.424,162.329L195.011,162.137L194.656,160.485L194.952,159.601L196.015,158.985L197.019,158.793L196.192,161.868ZM111.586,321.34L111.291,321.72L110.996,321.616L109.932,322.514L109.696,321.651L108.928,321.063L108.81,320.614L111.173,320.302L111.941,320.544ZM195.365,316.494L195.188,317.429L194.302,317.221L193.888,316.598L193.947,315.488L194.893,315.488ZM25.031,353.723L24.617,353.927L24.085,352.163L23.731,351.552L24.322,351.212L25.563,348.017L25.799,349.275L26.272,350.533L26.744,350.737L26.272,351.654L25.563,351.993ZM31.825,346.247L30.703,347.166L29.816,347.166L30.585,346.077L30.703,345.566L31.353,344.1L32.593,343.588L33.125,343.52L32.121,345.021ZM36.847,335.896L35.666,336.719L34.838,336.068L35.252,334.319L35.547,333.736L36.493,334.319ZM82.459,328.651L81.986,329.442L80.568,329.201L81.159,328.513L81.573,327.687L81.927,327.515L82.163,328.41ZM77.378,332.02L78.146,332.741L80.036,332.432L80.273,332.638L79.741,333.29L78.914,333.942L77.378,333.462L76.432,333.428L76.314,332.363L76.432,331.951ZM35.547,376.699L35.016,377.033L35.37,375.527L36.67,374.187L36.788,375.058ZM267.032,116.437L269.1,116.556L270.045,116.477L271.581,116.794L277.844,120.281L279.735,120.717L281.684,120.756L283.043,120.479L284.225,119.529L288.006,115.326L291.965,111.467L292.437,111.627L292.437,112.702L292.142,113.855L290.37,117.389L288.42,122.1L288.006,124.47L288.656,126.795L289.838,128.724L290.842,131.317L291.965,134.962L293.501,135.393L294.328,135.471L295.923,134.375L297.4,133.004L298.7,132.847L300,133.082L298.228,134.023L296.573,135.197L295.155,137.427L294.624,137.817L292.969,137.7L292.024,137.778L290.133,138.716L288.42,139.769L286.825,141.056L285.052,141.719L283.162,141.874L280.266,142.926L278.376,143.004L274.89,142.108L273.177,142.342L269.454,144.404L266.028,147.395L263.074,150.727L260.592,154.747L259.588,156.829L258.997,159.139L258.879,160.677L258.642,162.137L258.111,163.173L257.402,164.017L255.334,163.518L251.966,161.407L245.467,158.293L238.554,153.55L234.655,151.153L227.388,151.888L220.475,156.444L219.825,156.058L217.226,152.932L215.926,151.694L214.39,151.346L213.267,151.385L212.145,151.617L210.608,153.202L210.018,154.361L209.604,155.672L209.486,156.598L209.663,157.522L211.14,159.562L212.972,161.1L213.74,161.407L215.512,161.292L216.339,161.446L219.234,164.515L222.484,167.348L223.193,168.304L222.011,169.297L220.712,169.794L219.175,169.679L217.698,169.297L215.099,168.074L214.035,169.106L212.322,171.244L211.376,173.53L210.608,174.596L208.718,175.965L206.709,176.688L205.705,176.46L204.877,175.585L204.464,174.558L204.228,173.34L204.641,170.71L205.646,168.342L206.059,165.932L205.232,162.521L204.7,161.83L202.573,159.793L201.569,157.869L201.332,155.441L201.451,154.09L201.982,151.114L202.514,149.604L203.459,149.101L204.523,148.791L206.177,147.744L207.95,146.347L209.663,144.754L211.376,142.77L212.263,140.627L210.786,137.974L210.49,136.41L210.727,134.923L212.263,134.14L213.858,134.728L217.107,136.918L217.757,137.114L219.943,137.231L222.957,137.7L224.729,137.583L225.556,137.27L226.856,135.471L227.447,133.16L227.211,130.217L227.211,127.268L228.038,124.864L230.578,120.954L231.287,118.697L231.524,113.1L232.469,110.631L233.178,108.078L233.532,102.676L232.528,97.494L231.464,94.915L230.283,92.493L230.46,90.148L231.405,88.001L231.405,87.352L231.642,86.784L233.473,86.338L234.3,85.891L235.128,84.835L236.073,84.225L236.782,84.835L237.373,85.891L239.913,88.528L243.931,93.22L248.657,100.308L251.612,103.758L254.743,106.879L258.229,110.033L261.951,112.781L264.255,114.054L265.969,116.12ZM59.476,338.772L61.662,339.354L62.607,339.388L63.434,339.148L64.793,338.362L66.152,337.78L67.157,338.088L67.984,338.772L68.456,339.73L68.22,340.755L66.684,342.906L65.384,345.225L68.338,345.668L71.292,345.634L70.583,347.064L70.524,348.289L71.41,348.901L72.179,349.683L71.942,350.397L71.529,351.11L73.124,352.197L73.006,352.909L72.592,353.656L68.574,358.566L67.393,361.033L66.625,363.766L65.857,365.754L65.325,367.807L64.852,370.026L64.143,372.309L64.38,374.354L64.143,376.431L62.135,381.545L60.657,381.445L58.885,380.844L57.762,380.945L57.172,382.079L58.176,384.414L54.986,387.178L51.441,389.041L51.382,388.176L51.736,387.511L52.268,386.978L52.622,386.346L53.154,384.147L52.859,381.979L51.795,379.207L51.736,378.238L52.445,377.836L52.977,377.703L53.213,377.335L53.272,376.431L52.918,375.728L51.913,375.527L50.909,375.493L50.259,376.531L49.314,378.505L48.841,380.477L49.018,381.579L49.432,382.547L50.732,384.181L50.377,385.147L49.845,385.88L45.296,384.214L44.292,384.081L43.464,383.714L42.578,381.479L44.469,380.945L45.001,380.677L45.178,379.942L45.473,377.769L44.587,375.929L43.878,375.292L43.228,374.522L43.642,372.98L43.405,371.033L43.346,368.311L43.701,367.841L45.414,367.302L46.655,365.821L47.777,364.17L49.373,361.235L50.673,358.058L49.432,357.889L48.368,357.314L49.491,355.791L49.136,353.893L47.423,351.552L46.419,348.799L44.882,347.575L44.055,347.132L43.051,347.779L42.224,348.561L42.992,350.363L42.933,351.925L43.051,353.52L43.819,353.588L44.764,353.215L45.532,353.486L45.946,354.3L46.064,355.384L45.769,356.434L45.06,356.942L44.173,356.908L43.346,356.332L42.637,355.52L41.042,355.079L39.388,356.028L37.734,357.991L36.375,358.971L37.025,357.551L37.32,355.96L36.67,354.876L35.075,353.045L34.72,351.993L34.602,350.703L34.898,349.445L36.552,350.907L37.379,352.706L38.561,353.486L40.038,353.52L38.915,350.839L38.502,350.159L36.847,348.969L34.661,346.962L33.302,345.975L33.775,343.861L34.602,343.452L35.311,343.554L37.615,344.305L37.852,343.247L37.497,342.701L37.32,342.019L38.856,341.131L41.338,340.379L41.869,340.003L42.342,339.251L42.933,338.875L44.705,338.875L46.182,338.156L47.364,336.17L47.659,335.108L48.132,334.182L51.145,332.604L51.913,332.363L53.922,332.569L55.813,333.462L56.758,335.348L57.526,337.403ZM111.705,325.827L113.95,326.654L116.254,326.447L116.254,330.061L116.549,331.264L117.199,332.363L116.904,333.942L117.967,334.491L114.836,336.273L112,338.67L110.818,340.277L109.814,341.985L109.164,343.793L108.81,345.77L107.864,344.986L105.146,341.814L103.433,340.926L100.656,340.482L99.77,340.584L94.098,343.554L93.33,345.702L91.794,348.969L91.085,350.057L90.258,350.363L89.667,350.907L89.017,353.689L87.245,355.418L86.181,355.452L84.349,354.978L83.522,355.249L84.645,352.502L82.872,352.197L81.1,352.231L81.1,350.465L80.036,349.445L80.805,348.119L80.805,347.064L81.277,346.451L81.454,345.6L81.395,344.85L80.332,344.646L79.623,344.1L79.741,342.155L79.15,342.087L77.614,342.428L74.424,343.93L73.537,343.93L74.896,342.872L77.732,341.404L78.973,340.55L81.809,338.191L83.522,337.061L84.468,335.074L84.763,333.839L85.354,332.775L85.886,331.092L86.772,330.508L88.367,329.029L89.253,329.167L90.258,330.989L91.617,332.363L92.562,332.26L94.334,331.539L95.162,331.367L97.17,331.47L98.943,330.577L99.711,329.545L99.947,328.272L99.297,326.103L100.184,326.309L101.011,326.206L102.96,324.827L104.969,324.033L107.037,323.826L109.4,324.585ZM224.434,177.789L225.084,178.207L228.156,177.105L227.565,180.444L227.27,183.813L227.506,189.397L227.742,191.918L228.274,194.36L229.574,196.085L231.287,197.322L233.769,201.249L235.128,206.059L236.073,208.403L236.723,210.854L236.959,211.967L236.959,213.079L236.782,214.597L237.018,215.818L236.723,219.696L235.6,224.152L235.482,226.43L234.537,226.871L233.946,227.935L233.414,228.412L232.882,228.779L232.055,228.889L231.524,229.292L231.287,230.501L230.933,231.635L230.224,232.66L229.692,233.793L229.219,236.531L229.042,239.336L228.392,241.301L226.738,241.81L224.847,241.773L222.484,242.682L221.952,243.226L220.062,246.636L219.53,248.663L219.53,250.796L220.062,253.432L220.771,256.026L221.302,260.808L220.712,268.078L220.18,270.398L218.998,271.967L218.053,272.68L217.285,273.57L216.28,275.918L214.567,280.604L214.449,281.808L214.449,283.012L213.976,284.604L213.681,286.159L213.976,287.959L214.508,289.652L216.753,293.98L217.639,295.245L218.644,296.439L214.803,297.702L214.094,298.298L211.79,300.75L211.081,303.093L211.14,305.642L210.727,306.584L210.136,307.386L209.427,307.909L206.886,309.093L205.232,310.242L203.637,312.051L202.987,313.023L201.746,312.711L200.978,311.877L201.687,310.799L201.51,309.581L201.864,306.34L201.451,305.049L202.75,304.071L203.341,302.499L204.759,301.275L205.705,300.155L205.882,299.244L204.996,298.263L204.109,297.562L202.81,297.562L201.569,297.772L200.801,298.718L200.505,299.98L200.564,300.54L200.446,301.065L198.556,302.778L198.792,304.595L199.383,305.503L200.092,305.956L199.855,306.549L198.969,308.014L198.319,308.153L197.138,306.131L195.661,305.014L193.829,305.014L191.997,305.433L190.52,306.794L190.048,307.909L189.752,309.059L189.871,311.877L189.28,314.239L188.157,316.286L187.566,317.048L186.207,318.434L185.203,318.607L184.494,317.984L183.962,317.013L184.671,313.51L184.612,311.529L186.266,310.52L184.908,309.093L183.253,308.536L180.949,309.267L180.299,310.138L179.827,311.286L178.586,312.711L177.168,314.065L175.632,316.355L174.568,319.091L171.141,318.191L169.251,317.984L167.36,318.053L163.992,317.741L160.27,318.295L156.075,319.334L156.312,318.572L159.798,316.944L159.916,316.459L159.561,315.557L158.734,315.523L156.666,315.835L155.603,315.696L155.13,314.725L154.421,314.308L154.008,314.725L154.126,316.598L153.594,316.84L152.944,316.355L153.18,314.898L152.708,312.78L152.649,311.425L153.358,310.312L152.649,309.824L151.821,309.998L150.817,310.555L149.99,311.32L148.099,315.21L147.39,317.429L148.749,319.23L152.471,321.72L153.062,322.307L153.121,323.378L152.649,324.482L151.644,324.999L147.568,325.827L144.082,327.412L143.018,329.029L139.828,335.314L137.287,339.593L133.624,341.062L129.666,339.73L128.72,338.259L127.893,336.41L126.416,334.765L125.116,332.947L124.348,330.783L124.466,327.308L123.876,325.206L124.407,324.654L126.593,323.378L127.302,322.652L128.543,320.994L129.016,320.06L129.075,318.641L128.07,317.914L125.471,317.949L122.93,318.399L121.099,317.776L118.676,316.078L117.967,315.696L115.427,315.592L113.595,315.904L111.764,316.528L109.873,316.736L109.223,317.048L107.037,319.126L105.324,320.441L103.788,321.098L100.538,321.27L98.884,321.685L97.17,322.376L96.698,322.342L94.925,323.274L92.857,324.102L91.735,324.93L89.726,324.378L85.708,325.861L83.759,326.034L81.75,325.241L79.918,323.93L78.146,324.482L76.905,326.413L76.314,330.302L75.605,332.02L75.369,334.114L74.483,333.771L69.106,330.027L68.752,329.889L64.38,330.543L63.257,330.852L61.898,331.608L60.421,331.951L59.062,331.402L57.762,330.508L56.522,330.783L55.222,331.402L54.749,325.723L54.986,324.999L55.813,323.999L56.64,323.136L58.767,322.825L60.894,323.136L62.371,322.722L63.671,321.616L65.03,319.991L66.566,318.711L68.634,317.672L70.642,316.494L72.415,314.829L74.069,313.023L75.605,311.668L77.26,310.555L79.8,307.874L83.168,304.84L84.468,302.604L85.236,301.974L88.131,300.75L91.971,299.769L93.803,299.839L95.575,301.799L96.58,301.52L97.525,301.03L99.534,300.75L101.542,301.065L103.551,301.065L105.501,300.82L109.341,300.155L111.35,299.384L113.3,298.368L120.272,297.667L125.116,295.983L125.825,296.088L126.593,296.474L126.652,297.737L126.062,299.104L126.652,299.945L127.598,300.435L132.088,300.61L133.388,300.89L135.278,299.98L137.051,298.824L138.882,297.281L140.182,295.561L139.001,293.418L138.764,291.061L139.769,288.488L141.187,286.3L142.959,284.993L144.554,283.507L147.745,279.221L150.108,275.74L150.935,271.432L150.463,266.362L152.471,262.566L154.421,261.92L158.321,260.162L160.329,259.659L160.625,260.413L160.566,261.418L157.552,264.608L155.78,265.897L154.776,266.326L153.83,266.898L153.417,268.006L154.953,269.899L155.366,271.254L155.248,272.573L155.307,273.784L157.08,275.065L159.089,275.491L159.916,275.491L160.684,275.136L162.988,271.967L163.461,271.432L170.019,269.113L173.268,267.327L175.041,266.862L176.695,265.933L180.476,262.351L181.835,260.7L183.076,258.868L184.14,256.746L184.908,254.441L185.971,252.999L191.938,249.567L193.829,247.686L194.479,246.781L195.188,244.134L195.72,241.41L196.429,239.263L197.374,237.223L198.674,235.144L200.151,233.244L201.037,231.269L202.278,226.577L202.869,223.932L203.282,223.012L203.932,222.202L204.464,221.207L204.877,220.065L205.055,218.958L205.35,215.522L205.173,212.856L204.228,210.594L203.4,209.963L202.514,209.926L201.155,210.112L200.033,209.22L200.269,208.403L201.451,208.254L202.219,207.808L202.75,207.027L203.814,204.569L204.464,201.921L204.523,200.763L203.696,198.594L203.046,196.01L203.046,194.622L203.755,193.008L204.759,191.73L205.705,191.392L206.709,191.317L207.595,190.828L208.422,190.075L208.895,189.284L209.663,187.061L209.899,185.815L209.486,182.413L209.959,181.505L210.608,180.937L211.554,181.353L212.44,181.429L213.563,181.315L214.567,181.656L214.803,182.527L215.453,188.229L215.808,189.021L216.576,189.623L217.403,189.51L218.171,188.644L218.644,187.438L219.648,187.211L222.661,188.493L223.725,187.588L224.375,186.193L225.025,183.699L224.729,181.429L223.961,180.634L223.252,180.785L222.602,181.391L221.834,181.732L217.403,182.905L217.462,180.406L218.407,176.65L218.939,175.471L219.648,174.901L221.539,175.547L222.425,175.965ZM201.687,349.513L201.392,349.717L200.624,349.071L200.505,348.493L200.624,348.153L201.155,348.085L202.219,348.765Z" fill="#E9D7CF" stroke="#C9B2A9" stroke-width="1.3" stroke-linejoin="round"/>

  <polyline points="134.9,310.8 183.4,303.8 189.5,306.4 196.9,304.6 199.2,297.3 199.4,276.2" fill="none" stroke="#E5778C" stroke-width="1.5" stroke-dasharray="4 4" stroke-linecap="round" opacity="0.8"/>

  <g>
      <line x1="199.2" y1="297.3" x2="309" y2="292" stroke="#E7AEB8" stroke-width="0.8"/>
      <line x1="134.9" y1="310.8" x2="131" y2="311" stroke="#E7AEB8" stroke-width="0.8"/>
      <line x1="183.4" y1="303.8" x2="309" y2="347" stroke="#E7AEB8" stroke-width="0.8"/>
      <line x1="189.5" y1="306.4" x2="309" y2="329" stroke="#E7AEB8" stroke-width="0.8"/>
      <line x1="199.4" y1="276.2" x2="309" y2="269" stroke="#E7AEB8" stroke-width="0.8"/>
      <line x1="196.9" y1="304.6" x2="309" y2="311" stroke="#E7AEB8" stroke-width="0.8"/>
  </g>
  <g>
      <circle cx="199.2" cy="297.3" r="8" fill="none" stroke="#E5778C" stroke-width="1.2" opacity="0.5"/>
      <circle cx="199.2" cy="297.3" r="5" fill="#E5778C"/>
      <circle cx="134.9" cy="310.8" r="3.4" fill="#E5778C"/>
      <circle cx="183.4" cy="303.8" r="3.4" fill="#E5778C"/>
      <circle cx="189.5" cy="306.4" r="3.4" fill="#E5778C"/>
      <circle cx="199.4" cy="276.2" r="3.4" fill="#E5778C"/>
      <circle cx="196.9" cy="304.6" r="3.4" fill="#E5778C"/>
  </g>
  <g>
      <text x="314" y="296" text-anchor="start" font-size="15" font-weight="500" fill="#2C1A1F">Токио</text>
      <text x="126" y="315" text-anchor="end" font-size="12.5" fill="#5C4D50">Киото</text>
      <text x="314" y="351" text-anchor="start" font-size="12.5" fill="#5C4D50">Фудзи</text>
      <text x="314" y="333" text-anchor="start" font-size="12.5" fill="#5C4D50">Хаконе</text>
      <text x="314" y="273" text-anchor="start" font-size="12.5" fill="#5C4D50">Никко</text>
      <text x="314" y="315" text-anchor="start" font-size="12.5" fill="#5C4D50">Камакура</text>
  </g>

  <g transform="translate(352,398)">
    <rect width="46" height="46" rx="7" fill="none" stroke="#E5778C" stroke-width="1.6"/>
    <text x="23" y="21" font-size="16" fill="#E5778C" text-anchor="middle" font-family="serif">日</text>
    <text x="23" y="39" font-size="16" fill="#E5778C" text-anchor="middle" font-family="serif">本</text>
  </g>
</svg>
